<svg width="42" height="19" viewBox="0 0 42 19" fill="none" xmlns="http://www.w3.org/2000/svg">
<path d="M18.1173 18.1716C18.0938 18.1638 18.0713 18.1529 18.0491 18.1395L12.6416 14.7789C12.6367 14.7754 12.6314 14.7722 12.6272 14.7698C12.6213 14.7673 12.6163 14.7638 12.6104 14.7606L12.6026 14.7557L6.90373 14.8127C6.79617 14.8134 6.70055 14.7638 6.63834 14.6855C6.61549 14.6789 6.59299 14.6704 6.5712 14.6588C6.5385 14.6412 6.51003 14.6193 6.48542 14.5932C6.46363 14.5865 6.44254 14.5774 6.4225 14.5665L4.45784 13.4728C4.44518 13.4668 4.43358 13.4601 4.42093 13.4527L4.41425 13.4485L0.233943 11.1224C0.201954 11.1048 0.17348 11.0819 0.149929 11.0558C-0.00192953 10.9547 -0.0458717 10.7503 0.0525593 10.596C1.03687 9.04539 2.45736 7.75294 4.16042 6.85809C5.80238 5.99522 7.70558 5.50196 9.73243 5.50196C10.6773 5.50196 11.5955 5.60872 12.4722 5.81096C12.4781 5.77291 12.4915 5.73521 12.5115 5.69997C13.3657 4.19655 14.6062 2.94118 16.0971 2.07158C17.5377 1.23126 19.2116 0.75 20.9963 0.75C22.7711 0.75 24.4366 1.22565 25.8719 2.05751C27.3567 2.91792 28.5948 4.15957 29.4532 5.65064L29.4539 5.6531C30.3535 5.43994 31.296 5.32649 32.2676 5.32649C34.2951 5.32649 36.1983 5.81976 37.8396 6.68261C39.5431 7.57755 40.9632 8.86955 41.9474 10.4205C42.0459 10.5755 42.0019 10.7799 41.8501 10.8803C41.8265 10.9064 41.798 10.9282 41.7661 10.9469L37.5858 13.273L37.5791 13.2772C37.5675 13.285 37.5548 13.2917 37.5422 13.2973L35.5775 14.391C35.5575 14.4026 35.5357 14.4111 35.5146 14.4178C35.4903 14.4438 35.4615 14.4657 35.4288 14.4833C35.3726 14.5136 35.3121 14.5263 35.2523 14.5228L29.4276 14.5816C29.4058 14.6221 29.3745 14.658 29.3362 14.6876C29.3133 14.7144 29.2866 14.738 29.2546 14.7574L25.6146 16.9909C25.6079 16.9951 25.602 16.9993 25.5953 17.0025L23.8777 18.0557C23.8601 18.0666 23.8426 18.075 23.8239 18.0824C23.7962 18.1127 23.7635 18.1381 23.7248 18.1564C23.5585 18.2382 23.3585 18.1691 23.277 18.0025C23.0653 17.5687 22.7342 17.2027 22.3261 16.9476C21.9331 16.7017 21.467 16.5597 20.9678 16.5597C20.4571 16.5597 19.9825 16.708 19.5853 16.9628C19.1737 17.2263 18.8429 17.6051 18.6355 18.0546C18.5581 18.223 18.3592 18.297 18.1904 18.2188C18.1627 18.2061 18.1374 18.1903 18.1149 18.1709L18.1173 18.1716ZM13.2719 14.3808L14.5124 15.1521C15.161 14.0954 16.0594 13.2108 17.1246 12.5811C18.2526 11.9145 19.568 11.5315 20.9706 11.5315C22.3633 11.5315 23.6685 11.9078 24.7896 12.5652C25.8512 13.1874 26.75 14.062 27.4017 15.1083L28.6868 14.3205C27.8973 13.0528 26.8048 11.9926 25.5105 11.2429C24.1757 10.4702 22.6255 10.0273 20.9709 10.0273C19.3061 10.0273 17.7475 10.4751 16.4078 11.2562C15.1262 12.0039 14.0435 13.0559 13.2589 14.3145C13.2655 14.3356 13.2705 14.3575 13.2733 14.3811L13.2719 14.3808ZM15.0812 15.5048L16.3604 16.2997C16.8131 15.5597 17.4382 14.9358 18.1795 14.4872C18.9951 13.9929 19.9502 13.7093 20.9713 13.7093V13.711C21.9615 13.705 22.8948 13.9788 23.7019 14.4611C24.4384 14.9016 25.0701 15.515 25.5447 16.2492L26.833 15.4586C26.2399 14.5097 25.4219 13.7142 24.4528 13.1469C23.4306 12.5483 22.2414 12.2058 20.9724 12.2058C19.6924 12.2058 18.4945 12.5542 17.4683 13.1606C16.4939 13.7363 15.6735 14.5439 15.0829 15.5061L15.0812 15.5048ZM16.9298 16.6537L18.2041 17.4458C18.4611 17.0233 18.8122 16.6646 19.2288 16.3976C19.7329 16.0741 20.3308 15.8867 20.9706 15.8867C21.5987 15.8867 22.1858 16.0667 22.6832 16.3775C23.0906 16.6326 23.4375 16.9751 23.697 17.3809L24.9727 16.5981C24.5544 15.9564 24.0011 15.4202 23.3575 15.0355C22.652 14.6137 21.8371 14.3745 20.972 14.3805L20.9702 14.3822C20.0749 14.3822 19.2383 14.6306 18.5243 15.0633C17.8733 15.4572 17.3249 16.0044 16.9284 16.6534L16.9298 16.6537ZM7.2775 14.1384L12.1489 14.0894C11.9338 13.8283 11.6677 13.6028 11.3629 13.4259C10.8943 13.1532 10.3347 12.995 9.73257 12.995C9.14201 12.995 8.59366 13.1465 8.13102 13.4094C7.79601 13.5997 7.50531 13.8481 7.27682 14.1384L7.2775 14.1384ZM29.8605 13.9062L34.6388 13.8583C34.4254 13.6123 34.1649 13.4013 33.8711 13.2346C33.4081 12.9721 32.8598 12.8203 32.2695 12.8203C31.6674 12.8203 31.1088 12.9785 30.6392 13.2512C30.3376 13.4263 30.0739 13.6486 29.8598 13.9069L29.8605 13.9062ZM0.806316 10.6718L2.35271 11.5322C3.10285 10.4258 4.14333 9.50093 5.37718 8.84492C6.6581 8.16455 8.14644 7.7749 9.7336 7.7749C11.0329 7.7749 12.2666 8.03668 13.3764 8.50635C14.5111 8.98623 15.5116 9.68244 16.3151 10.5362C16.8484 10.2458 17.4112 10.0034 17.9982 9.81458C17.0533 8.72517 15.8521 7.82779 14.4766 7.1964C13.053 6.54317 11.4419 6.17428 9.73351 6.17428C7.8142 6.17428 6.01683 6.63901 4.47053 7.45148C2.97724 8.23613 1.71639 9.34492 0.805236 10.6707L0.806316 10.6718ZM2.94214 11.8606L4.49168 12.7228C5.03935 11.9406 5.77332 11.2884 6.63173 10.8226C7.54882 10.3258 8.60872 10.044 9.73432 10.05V10.0482C10.6556 10.0482 11.5327 10.2342 12.3212 10.5675C13.0998 10.8966 13.7909 11.3698 14.3519 11.9484C14.7762 11.5562 15.2346 11.2007 15.7224 10.8875C15.0001 10.1493 14.1139 9.54651 13.117 9.12474C12.0915 8.69102 10.9449 8.44861 9.73387 8.44861C8.25749 8.44861 6.8756 8.80975 5.68962 9.44043C4.57177 10.0338 3.62759 10.8666 2.94142 11.8606L2.94214 11.8606ZM5.08147 13.0511L6.6176 13.9055C6.91745 13.4679 7.32311 13.0973 7.80259 12.8252C8.36538 12.506 9.02727 12.3217 9.73423 12.3217C10.4566 12.3217 11.1309 12.5138 11.7003 12.8446C12.1302 13.0948 12.5 13.4246 12.7848 13.8111C13.1064 13.3153 13.4717 12.8496 13.8759 12.4211C13.3754 11.9035 12.7581 11.4807 12.0617 11.1862C11.3569 10.8882 10.5684 10.7215 9.73432 10.7215L9.73256 10.7197C8.72368 10.7137 7.77213 10.9671 6.94818 11.4135C6.2033 11.8166 5.56386 12.3792 5.08124 13.0501L5.08147 13.0511ZM15.1793 6.7929C15.6303 7.02263 16.063 7.28018 16.4729 7.56417C16.9432 6.84258 17.5815 6.24006 18.3317 5.81234C19.1195 5.36346 20.0299 5.10697 20.9984 5.10697V5.10873C21.9165 5.1038 22.7848 5.33845 23.55 5.75703C24.296 6.16538 24.9428 6.74776 25.4405 7.45176C25.8504 7.16284 26.2821 6.90035 26.7349 6.66463C26.1165 5.74434 25.2845 4.98082 24.3094 4.44631C23.3276 3.90829 22.1996 3.60281 20.9984 3.60281C19.7543 3.60281 18.588 3.93118 17.5815 4.50623C16.6082 5.06257 15.7825 5.84973 15.1785 6.79257L15.1793 6.7929ZM17.0135 7.96124C17.4185 8.27763 17.7981 8.62116 18.1489 8.98652C18.4108 8.5017 18.7933 8.09158 19.2559 7.79455C19.76 7.47111 20.3579 7.28366 20.9976 7.28366C21.6258 7.28366 22.2129 7.4637 22.7102 7.77446C23.1511 8.05069 23.5216 8.43016 23.787 8.88083C24.1322 8.51475 24.5051 8.17123 24.903 7.85303C24.4629 7.2241 23.8899 6.70544 23.229 6.34429C22.5604 5.97821 21.8012 5.7728 20.999 5.77773L20.9972 5.77949C20.1466 5.77949 19.3493 6.00358 18.6614 6.39573C17.9935 6.77626 17.4268 7.31493 17.0128 7.96084L17.0135 7.96124ZM18.6252 9.51859C18.653 9.55136 18.6797 9.58519 18.7075 9.61796C19.4341 9.44461 20.1916 9.3537 20.9703 9.3537C21.7254 9.3537 22.4604 9.43967 23.1666 9.6028C23.2155 9.54044 23.265 9.47913 23.3153 9.41747C23.3118 9.41254 23.3093 9.40655 23.3068 9.40162C23.0952 8.96789 22.7641 8.60182 22.356 8.34675C21.963 8.10082 21.4969 7.95883 20.9977 7.95883C20.4869 7.95883 20.0124 8.10716 19.6152 8.36191C19.2036 8.62546 18.8728 9.00422 18.6653 9.45375C18.6544 9.47736 18.6411 9.49991 18.6249 9.51929L18.6252 9.51859ZM13.1246 5.9804C13.6217 6.12451 14.1032 6.29962 14.5676 6.50327C15.2337 5.43677 16.1568 4.54678 17.2504 3.92135C18.3566 3.28926 19.6358 2.92809 20.998 2.92809C22.3117 2.92809 23.5497 3.26493 24.6289 3.85578C25.7274 4.45757 26.6607 5.32393 27.3434 6.36797C27.807 6.16009 28.2883 5.98075 28.7847 5.83172C27.9909 4.51257 26.8713 3.41153 25.5376 2.63853C24.2029 1.86586 22.6527 1.42293 20.9981 1.42293C19.3333 1.42293 17.7747 1.87074 16.435 2.65188C15.0633 3.45168 13.9195 4.60169 13.1251 5.97901L13.1246 5.9804ZM35.3863 13.7304L36.9225 12.876C36.4395 12.2051 35.7994 11.6435 35.0555 11.2393C34.2316 10.7933 33.2807 10.5396 32.2711 10.5456L32.2694 10.5473C31.3867 10.5473 30.5536 10.7351 29.8161 11.0677C29.118 11.3827 28.5049 11.8281 28.0152 12.3686C28.4268 12.7988 28.7998 13.2677 29.1281 13.7677C29.423 13.3248 29.8262 12.9485 30.3039 12.6709C30.8734 12.3401 31.5479 12.148 32.27 12.148C32.9773 12.148 33.6399 12.3323 34.2017 12.6515C34.6811 12.9235 35.0868 13.2938 35.3866 13.7318L35.3863 13.7304ZM37.512 12.5476L39.0615 11.6855C38.3754 10.6912 37.4312 9.85859 36.3133 9.26526C35.1273 8.63458 33.7447 8.27345 32.2691 8.27345C30.9899 8.27345 29.782 8.54439 28.712 9.02604C27.726 9.46964 26.8549 10.0925 26.1519 10.8462C26.6433 11.1559 27.106 11.5079 27.5334 11.8987C28.0818 11.2983 28.7649 10.8043 29.5392 10.4548C30.3625 10.0827 31.2894 9.87378 32.2681 9.87378V9.87554C33.3937 9.86955 34.4535 10.1518 35.3707 10.6482C36.2291 11.1129 36.9631 11.7662 37.5107 12.5483L37.512 12.5476ZM39.6503 11.3581L41.1967 10.4977C40.2856 9.17186 39.0246 8.06306 37.5314 7.27843C35.985 6.46594 34.1878 6.00123 32.2684 6.00123C30.4965 6.00123 28.8291 6.3969 27.3675 7.09731C25.9952 7.75406 24.8024 8.67929 23.8734 9.79549C24.4604 9.97906 25.025 10.2165 25.5589 10.5026C26.3407 9.63201 27.3218 8.91641 28.4382 8.414C29.5948 7.89361 30.895 7.60081 32.2681 7.60081C33.8556 7.60081 35.3439 7.9905 36.6245 8.67083C37.8584 9.32653 38.8988 10.2517 39.649 11.3581L39.6503 11.3581Z" fill="#FC4308"/>
</svg>
